#N canvas 18 353 1497 825 10;
#X floatatom 34 -126 3 0 0 0 - - -, f 3;
#X obj 55 -102 bng 20 250 50 0 empty empty empty 17 7 0 10 -262144
-1 -1;
#X obj 70 -122 outlet;
#X floatatom 19 405 3 0 0 0 - - -, f 3;
#X obj 28 430 bng 20 250 50 0 empty empty empty 17 7 0 10 -262144 -1
-1;
#X obj 55 411 outlet;
#X floatatom 14 857 3 0 0 0 - - -, f 3;
#X obj 23 879 bng 20 250 50 0 empty empty empty 17 7 0 10 -262144 -1
-1;
#X obj 50 863 outlet;
#X obj 19 380 ctlin 18 1;
#X obj 14 832 ctlin 19 1;
#X floatatom 653 125 3 0 0 0 - - -, f 3;
#X obj 673 150 bng 20 250 50 0 empty empty empty 17 7 0 10 -262144
-1 -1;
#X obj 689 131 outlet;
#X floatatom 768 125 3 0 0 0 - - -, f 3;
#X obj 789 149 bng 20 250 50 0 empty empty empty 17 7 0 10 -262144
-1 -1;
#X obj 805 130 outlet;
#X floatatom 885 126 3 0 0 0 - - -, f 3;
#X obj 905 151 bng 20 250 50 0 empty empty empty 17 7 0 10 -262144
-1 -1;
#X obj 921 132 outlet;
#X obj 188 -126 outlet;
#X floatatom 280 -127 3 0 0 0 - - -, f 3;
#X obj 286 -105 bng 20 250 50 0 empty empty empty 17 7 0 10 -262144
-1 -1;
#X obj 316 -121 outlet;
#X floatatom 394 -124 3 0 0 0 - - -, f 3;
#X obj 408 -99 bng 20 250 50 0 empty empty empty 17 7 0 10 -262144
-1 -1;
#X obj 430 -118 outlet;
#X floatatom 514 -128 3 0 0 0 - - -, f 3;
#X obj 542 -105 bng 20 250 50 0 empty empty empty 17 7 0 10 -262144
-1 -1;
#X obj 550 -127 outlet;
#X floatatom 629 -133 3 0 0 0 - - -, f 3;
#X obj 656 -106 bng 20 250 50 0 empty empty empty 17 7 0 10 -262144
-1 -1;
#X obj 662 -131 outlet;
#X floatatom 748 -134 3 0 0 0 - - -, f 3;
#X obj 765 -108 bng 20 250 50 0 empty empty empty 17 7 0 10 -262144
-1 -1;
#X obj 784 -128 outlet;
#X floatatom 859 -132 3 0 0 0 - - -, f 3;
#X obj 873 -112 bng 20 250 50 0 empty empty empty 17 7 0 10 -262144
-1 -1;
#X obj 895 -126 outlet;
#X obj 176 404 outlet;
#X floatatom 275 398 3 0 0 0 - - -, f 3;
#X obj 281 421 bng 20 250 50 0 empty empty empty 17 7 0 10 -262144
-1 -1;
#X obj 311 404 outlet;
#X floatatom 386 401 3 0 0 0 - - -, f 3;
#X obj 405 426 bng 20 250 50 0 empty empty empty 17 7 0 10 -262144
-1 -1;
#X obj 422 407 outlet;
#X floatatom 509 397 3 0 0 0 - - -, f 3;
#X obj 530 421 bng 20 250 50 0 empty empty empty 17 7 0 10 -262144
-1 -1;
#X obj 545 398 outlet;
#X floatatom 630 389 3 0 0 0 - - -, f 3;
#X obj 643 413 bng 20 250 50 0 empty empty empty 17 7 0 10 -262144
-1 -1;
#X obj 666 395 outlet;
#X floatatom 755 386 3 0 0 0 - - -, f 3;
#X obj 774 412 bng 20 250 50 0 empty empty empty 17 7 0 10 -262144
-1 -1;
#X obj 791 392 outlet;
#X floatatom 879 389 3 0 0 0 - - -, f 3;
#X obj 893 411 bng 20 250 50 0 empty empty empty 17 7 0 10 -262144
-1 -1;
#X obj 915 395 outlet;
#X floatatom 139 407 3 0 0 0 - - -, f 3;
#X obj 149 428 bng 20 250 50 0 empty empty empty 17 7 0 10 -262144
-1 -1;
#X floatatom 152 -128 3 0 0 0 - - -, f 3;
#X obj 160 -106 bng 20 250 50 0 empty empty empty 17 7 0 10 -262144
-1 -1;
#X obj 147 860 outlet;
#X floatatom 204 855 3 0 0 0 - - -, f 3;
#X obj 211 875 bng 20 250 50 0 empty empty empty 17 7 0 10 -262144
-1 -1;
#X obj 240 861 outlet;
#X floatatom 299 853 3 0 0 0 - - -, f 3;
#X obj 309 876 bng 20 250 50 0 empty empty empty 17 7 0 10 -262144
-1 -1;
#X obj 335 859 outlet;
#X floatatom 438 854 3 0 0 0 - - -, f 3;
#X obj 449 875 bng 20 250 50 0 empty empty empty 17 7 0 10 -262144
-1 -1;
#X obj 474 855 outlet;
#X floatatom 539 847 3 0 0 0 - - -, f 3;
#X obj 549 869 bng 20 250 50 0 empty empty empty 17 7 0 10 -262144
-1 -1;
#X obj 575 853 outlet;
#X floatatom 634 845 3 0 0 0 - - -, f 3;
#X obj 646 867 bng 20 250 50 0 empty empty empty 17 7 0 10 -262144
-1 -1;
#X obj 670 851 outlet;
#X floatatom 727 846 3 0 0 0 - - -, f 3;
#X obj 740 869 bng 20 250 50 0 empty empty empty 17 7 0 10 -262144
-1 -1;
#X obj 763 852 outlet;
#X floatatom 111 853 3 0 0 0 - - -, f 3;
#X obj 120 874 bng 20 250 50 0 empty empty empty 17 7 0 10 -262144
-1 -1;
#X obj 141 373 ctlin 22 1;
#X obj 111 829 ctlin 23 1;
#X obj 275 373 ctlin 26 1;
#X obj 204 830 ctlin 27 1;
#X obj 386 376 ctlin 30 1;
#X obj 299 828 ctlin 31 1;
#X obj 509 367 ctlin 48 1;
#X obj 438 824 ctlin 49 1;
#X obj 539 822 ctlin 53 1;
#X obj 634 820 ctlin 57 1;
#X obj 727 821 ctlin 61 1;
#X floatatom 1006 833 3 0 0 0 - - -, f 3;
#X obj 1016 855 bng 20 250 50 0 empty empty empty 17 7 0 10 -262144
-1 -1;
#X obj 1042 839 outlet;
#X obj 1006 808 ctlin 62 1;
#X obj 630 364 ctlin 52 1;
#X obj 755 362 ctlin 56 1;
#X obj 879 365 ctlin 60 1;
#X obj 14 907 vsl 15 128 0 127 0 0 empty empty empty 0 -9 0 10 -262144
-1 -1 0 1;
#X obj 111 904 vsl 15 128 0 127 0 0 empty empty empty 0 -9 0 10 -262144
-1 -1 0 1;
#X obj 204 904 vsl 15 128 0 127 0 0 empty empty empty 0 -9 0 10 -262144
-1 -1 0 1;
#X obj 299 903 vsl 15 128 0 127 0 0 empty empty empty 0 -9 0 10 -262144
-1 -1 0 1;
#X obj 438 903 vsl 15 128 0 127 0 0 empty empty empty 0 -9 0 10 -262144
-1 -1 0 1;
#X obj 539 895 vsl 15 128 0 127 0 0 empty empty empty 0 -9 0 10 -262144
-1 -1 0 1;
#X obj 634 894 vsl 15 128 0 127 0 0 empty empty empty 0 -9 0 10 -262144
-1 -1 0 1;
#X obj 727 895 vsl 15 128 0 127 0 0 empty empty empty 0 -9 0 10 -262144
-1 -1 0 1;
#X obj 1006 886 vsl 15 128 0 127 0 0 empty empty empty 0 -9 0 10 -262144
-1 -1 3000 1;
#X text 1016 778 MASTER;
#X floatatom 11 722 3 0 0 0 - - -, f 3;
#X floatatom 69 724 3 0 0 0 - - -, f 3;
#X obj 12 698 notein 1 3;
#X floatatom 1207 590 3 0 0 0 - - -, f 3;
#X floatatom 1270 589 3 0 0 0 - - -, f 3;
#X floatatom 107 667 3 0 0 0 - - -, f 3;
#X floatatom 164 667 3 0 0 0 - - -, f 3;
#X floatatom 109 725 3 0 0 0 - - -, f 3;
#X floatatom 166 725 3 0 0 0 - - -, f 3;
#X floatatom 203 666 3 0 0 0 - - -, f 3;
#X obj 203 642 notein 1 1;
#X floatatom 260 666 3 0 0 0 - - -, f 3;
#X floatatom 205 724 3 0 0 0 - - -, f 3;
#X floatatom 262 724 3 0 0 0 - - -, f 3;
#X obj 205 698 notein 1 3;
#X floatatom 303 664 3 0 0 0 - - -, f 3;
#X obj 303 640 notein 1 1;
#X floatatom 360 664 3 0 0 0 - - -, f 3;
#X floatatom 305 722 3 0 0 0 - - -, f 3;
#X floatatom 362 722 3 0 0 0 - - -, f 3;
#X obj 305 696 notein 1 3;
#X floatatom 450 663 3 0 0 0 - - -, f 3;
#X obj 450 639 notein 1 1;
#X floatatom 507 663 3 0 0 0 - - -, f 3;
#X floatatom 452 721 3 0 0 0 - - -, f 3;
#X floatatom 509 721 3 0 0 0 - - -, f 3;
#X obj 452 695 notein 1 3;
#X floatatom 547 664 3 0 0 0 - - -, f 3;
#X obj 547 640 notein 1 1;
#X floatatom 604 664 3 0 0 0 - - -, f 3;
#X floatatom 549 722 3 0 0 0 - - -, f 3;
#X floatatom 606 722 3 0 0 0 - - -, f 3;
#X obj 549 696 notein 1 3;
#X floatatom 643 663 3 0 0 0 - - -, f 3;
#X obj 643 639 notein 1 1;
#X floatatom 700 663 3 0 0 0 - - -, f 3;
#X floatatom 645 721 3 0 0 0 - - -, f 3;
#X floatatom 702 721 3 0 0 0 - - -, f 3;
#X obj 645 695 notein 1 3;
#X floatatom 743 661 3 0 0 0 - - -, f 3;
#X obj 743 637 notein 1 1;
#X floatatom 800 661 3 0 0 0 - - -, f 3;
#X floatatom 745 719 3 0 0 0 - - -, f 3;
#X floatatom 802 719 3 0 0 0 - - -, f 3;
#X obj 745 693 notein 1 3;
#X obj 1207 564 notein 1 27;
#X floatatom 1225 414 3 0 0 0 - - -, f 3;
#X floatatom 1288 413 3 0 0 0 - - -, f 3;
#X obj 1225 388 notein 1 26;
#X obj 107 643 notein 1 4;
#X obj 109 699 notein 1 6;
#X floatatom 20 513 5 0 0 0 - - -, f 5;
#X floatatom 139 510 5 0 0 0 - - -, f 5;
#X floatatom 275 508 5 0 0 0 - - -, f 5;
#X floatatom 386 511 5 0 0 0 - - -, f 5;
#X floatatom 631 502 5 0 0 0 - - -, f 5;
#X floatatom 756 497 5 0 0 0 - - -, f 5;
#X floatatom 879 497 5 0 0 0 - - -, f 5;
#X floatatom 34 -33 5 0 0 0 - - -, f 5;
#X floatatom 152 -30 5 0 0 0 - - -, f 5;
#X floatatom 279 -32 5 0 0 0 - - -, f 5;
#X floatatom 394 -32 5 0 0 0 - - -, f 5;
#X floatatom 514 -14 5 0 0 0 - - -, f 5;
#X floatatom 629 -10 5 0 0 0 - - -, f 5;
#X floatatom 748 -13 5 0 0 0 - - -, f 5;
#X floatatom 653 213 5 0 0 0 - - -, f 5;
#X floatatom 769 213 5 0 0 0 - - -, f 5;
#X floatatom 885 212 5 0 0 0 - - -, f 5;
#X floatatom 858 -14 5 0 0 0 - - -, f 5;
#X floatatom 885 257 5 0 0 0 - - -, f 5;
#X floatatom 769 254 5 0 0 0 - - -, f 5;
#X floatatom 653 255 5 0 0 0 - - -, f 5;
#X obj 653 100 ctlin 51 1;
#X obj 769 101 ctlin 55 1;
#X obj 885 99 ctlin 59 1;
#X obj 859 -156 ctlin 58 1;
#X obj 748 -157 ctlin 54 1;
#X obj 629 -156 ctlin 50 1;
#X obj 514 -156 ctlin 46 1;
#X obj 394 -149 ctlin 28 1;
#X obj 280 -152 ctlin 24 1;
#X obj 152 -157 ctlin 20 1;
#X obj 34 -153 ctlin 16 1;
#X text 1241 -136 SEND ALL;
#X floatatom 880 545 5 0 0 0 - - -, f 5;
#X floatatom 756 541 5 0 0 0 - - -, f 5;
#X floatatom 631 544 5 0 0 0 - - -, f 5;
#X obj 880 522 * 0.82;
#X obj 756 520 * 0.81;
#X obj 631 524 * 0.625;
#X floatatom 386 558 5 0 0 0 - - -, f 5;
#X floatatom 275 555 5 0 0 0 - - -, f 5;
#X floatatom 139 553 5 0 0 0 - - -, f 5;
#X floatatom 19 553 5 0 0 0 - - -, f 5;
#X obj 139 533 * 0.37;
#X obj 18 533 * 0.365;
#X floatatom 859 33 5 0 0 0 - - -, f 5;
#X floatatom 748 30 5 0 0 0 - - -, f 5;
#X floatatom 629 31 5 0 0 0 - - -, f 5;
#X floatatom 514 30 5 0 0 0 - - -, f 5;
#X obj 629 11 * 8.5;
#X obj 513 10 * 8.49;
#X obj 748 10 * 7.9;
#X obj 859 10 * 8;
#X floatatom 394 12 5 0 0 0 - - -, f 5;
#X floatatom 279 8 5 0 0 0 - - -, f 5;
#X floatatom 150 11 5 0 0 0 - - -, f 5;
#X floatatom 34 6 5 0 0 0 - - -, f 5;
#X obj 394 -10 * 8.36;
#X floatatom 1285 127 3 0 0 0 - - -, f 3;
#X text 1210 534 BANK RIGHT;
#X text 1228 359 BANK LEFT;
#X obj 33 -14 * 100.24;
#X obj 150 -9 * 80.25;
#X obj 279 -12 * 80.35;
#X floatatom 36 126 3 0 0 0 - - -, f 3;
#X obj 45 151 bng 20 250 50 0 empty empty empty 17 7 0 10 -262144 -1
-1;
#X obj 72 132 outlet;
#X obj 193 125 outlet;
#X floatatom 287 122 3 0 0 0 - - -, f 3;
#X obj 293 145 bng 20 250 50 0 empty empty empty 17 7 0 10 -262144
-1 -1;
#X obj 323 128 outlet;
#X floatatom 410 121 3 0 0 0 - - -, f 3;
#X obj 428 146 bng 20 250 50 0 empty empty empty 17 7 0 10 -262144
-1 -1;
#X obj 445 127 outlet;
#X floatatom 156 128 3 0 0 0 - - -, f 3;
#X obj 166 149 bng 20 250 50 0 empty empty empty 17 7 0 10 -262144
-1 -1;
#X floatatom 37 214 5 0 0 0 - - -, f 5;
#X floatatom 156 211 5 0 0 0 - - -, f 5;
#X floatatom 287 212 5 0 0 0 - - -, f 5;
#X floatatom 410 211 5 0 0 0 - - -, f 5;
#X floatatom 410 258 5 0 0 0 - - -, f 5;
#X floatatom 287 259 5 0 0 0 - - -, f 5;
#X floatatom 156 254 5 0 0 0 - - -, f 5;
#X floatatom 36 254 5 0 0 0 - - -, f 5;
#X obj 287 238 * 0.48;
#X obj 156 234 * 0.37;
#X obj 35 234 * 0.365;
#X obj 36 101 ctlin 17 1;
#X obj 158 94 ctlin 21 1;
#X obj 287 97 ctlin 25 1;
#X obj 409 96 ctlin 29 1;
#X floatatom 534 120 3 0 0 0 - - -, f 3;
#X obj 553 145 bng 20 250 50 0 empty empty empty 17 7 0 10 -262144
-1 -1;
#X obj 570 126 outlet;
#X floatatom 534 210 5 0 0 0 - - -, f 5;
#X floatatom 534 257 5 0 0 0 - - -, f 5;
#X obj 534 95 ctlin 47 1;
#X obj 405 874 dac~;
#X obj 1017 611 freeverb~;
#X msg 1022 212 roomsize \$1;
#X msg 1022 257 damping \$1;
#X msg 1022 301 width \$1;
#X msg 1022 345 wet \$1;
#X msg 1022 389 dry \$1;
#X msg 1056 412 print;
#X msg 1075 451 freeze \$1;
#X msg 1080 488 bypass \$1;
#X obj 1080 469 tgl 15 0 empty empty empty 0 -6 0 8 -262144 -1 -1 0
1;
#X obj 1075 432 tgl 15 0 empty empty empty 0 -6 0 8 -262144 -1 -1 0
1;
#X obj 1036 366 hsl 60 18 0 1 0 1 empty empty dry 2 9 1 12 -225271
-1 -1 4785 0;
#X obj 1034 322 hsl 60 18 0 1 0 1 empty empty wet 2 9 1 12 -225271
-1 -1 5854 0;
#X obj 1034 278 hsl 60 18 0 1 0 1 empty empty width 2 9 1 12 -262131
-1 -1 883 0;
#X obj 1034 234 hsl 60 18 0 2 0 1 empty empty damping 2 9 1 12 -261689
-1 -1 2671 0;
#X obj 1034 189 hsl 60 18 0.11 1.1 0 1 empty empty roomsize 2 9 1 12
-261689 -1 -1 2207 0;
#X floatatom 1004 193 3 0 0 0 - - -, f 3;
#X floatatom 1004 238 3 0 0 0 - - -, f 3;
#X floatatom 1004 283 3 0 0 0 - - -, f 3;
#X floatatom 1004 326 3 0 0 0 - - -, f 3;
#X floatatom 1004 370 3 0 0 0 - - -, f 3;
#X obj 386 535 / 127;
#X obj 275 534 / 127;
#X obj 885 234 / 127;
#X obj 769 233 / 127;
#X obj 653 235 / 127;
#X obj 534 234 / 127;
#X obj 409 235 / 127;
#X obj -136 -39 phasor~;
#X msg 264 784 stop;
#X obj 188 777 bng 15 250 50 0 empty empty empty 17 7 0 10 -262144
-1 -1;
#X obj 0 396 vsl 15 128 0 127 0 0 empty empty empty 0 -9 0 10 -262144
-1 -1 0 1;
#X obj 113 407 vsl 15 128 0 127 0 0 empty empty empty 0 -9 0 10 -262144
-1 -1 0 1;
#X obj 244 409 vsl 15 128 0 127 0 0 empty empty empty 0 -9 0 10 -262144
-1 -1 0 1;
#X obj 366 409 vsl 15 128 0 127 0 0 empty empty empty 0 -9 0 10 -262144
-1 -1 0 1;
#X obj 483 404 vsl 15 128 0 127 0 0 empty empty empty 0 -9 0 10 -262144
-1 -1 9100 1;
#X obj 607 404 vsl 15 128 0 127 0 0 empty empty empty 0 -9 0 10 -262144
-1 -1 8800 1;
#X obj 731 402 vsl 15 128 0 127 0 0 empty empty empty 0 -9 0 10 -262144
-1 -1 0 1;
#X obj 852 403 vsl 15 128 0 127 0 0 empty empty empty 0 -9 0 10 -262144
-1 -1 0 1;
#X obj 11 128 vsl 15 128 0 127 0 0 empty empty empty 0 -9 0 10 -262144
-1 -1 0 1;
#X obj 133 130 vsl 15 128 0 127 0 0 empty empty empty 0 -9 0 10 -262144
-1 -1 0 1;
#X obj 264 129 vsl 15 128 0 127 0 0 empty empty empty 0 -9 0 10 -262144
-1 -1 0 1;
#X obj 386 127 vsl 15 128 0 127 0 0 empty empty empty 0 -9 0 10 -262144
-1 -1 0 1;
#X obj 504 126 vsl 15 128 0 127 0 0 empty empty empty 0 -9 0 10 -262144
-1 -1 0 1;
#X obj 634 124 vsl 15 128 0 127 0 0 empty empty empty 0 -9 0 10 -262144
-1 -1 0 1;
#X obj 746 128 vsl 15 128 0 127 0 0 empty empty empty 0 -9 0 10 -262144
-1 -1 0 1;
#X obj 863 127 vsl 15 128 0 127 0 0 empty empty empty 0 -9 0 10 -262144
-1 -1 6100 1;
#X obj 13 -139 vsl 15 128 0 127 0 0 empty empty empty 0 -9 0 10 -262144
-1 -1 0 1;
#X obj 129 -128 vsl 15 128 0 127 0 0 empty empty empty 0 -9 0 10 -262144
-1 -1 0 1;
#X obj 256 -124 vsl 15 128 0 127 0 0 empty empty empty 0 -9 0 10 -262144
-1 -1 0 1;
#X obj 375 -130 vsl 15 128 0 127 0 0 empty empty empty 0 -9 0 10 -262144
-1 -1 0 1;
#X obj 491 -122 vsl 15 128 0 127 0 0 empty empty empty 0 -9 0 10 -262144
-1 -1 0 1;
#X obj 609 -125 vsl 15 128 0 127 0 0 empty empty empty 0 -9 0 10 -262144
-1 -1 0 1;
#X obj 726 -124 vsl 15 128 0 127 0 0 empty empty empty 0 -9 0 10 -262144
-1 -1 0 1;
#X obj 836 -126 vsl 15 128 0 127 0 0 empty empty empty 0 -9 0 10 -262144
-1 -1 0 1;
#X msg 411 580 open 1.wav \, 1;
#X msg 527 600 open 2.wav \, 1;
#X msg 671 584 open 3.wav \, 1;
#X msg 789 590 open 4.wav \, 1;
#X obj 955 869;
#X obj 1423 343 metro;
#X floatatom 1458 316 5 0 0 0 - - -, f 5;
#X obj 1423 316 tgl 15 0 empty empty empty 0 -6 0 8 -262144 -1 -1 1
1;
#X obj 1462 385 del;
#X obj 1356 505 line~;
#X obj 1356 529 abs~;
#X obj 1355 557 *~ -1;
#X obj 1354 581 +~ 1;
#X obj 1431 508 line~;
#X obj 1431 532 abs~;
#X obj 1430 560 *~ -1;
#X obj 1432 583 +~ 1;
#X obj 1540 509 line~;
#X obj 1540 533 abs~;
#X obj 1539 561 *~ -1;
#X obj 1538 585 +~ 1;
#X obj 1642 509 line~;
#X obj 1642 533 abs~;
#X obj 1647 560 *~ -1;
#X obj 1536 411 del;
#X obj 1555 381 / 4;
#X obj 1639 437 del;
#X obj 1658 407 / 4;
#X obj 1356 456 f;
#X obj 1431 459 f;
#X obj 1540 460 f;
#X obj 1642 462 f;
#X text 1505 315 speed;
#X obj 1474 273 hsl 128 30 0 2000 0 0 empty empty empty -2 -8 0 10
-262144 -1 -1 3010 1;
#X obj 1598 344 / 2;
#X obj 1481 355 / 4;
#X obj 1648 585 +~ 2;
#X msg 1356 482 -1 \, 1 \$1;
#X msg 1431 485 -1 \, 1 \$1;
#X msg 1540 486 -1 \, 1 \$1;
#X msg 1642 486 -1 \, 1 \$1;
#X obj 1747 748 writesf~ 1 2 3 4;
#X msg 1812 717 stop;
#X msg 1759 716 start;
#X floatatom 1065 954 5 0 0 0 - - -, f 5;
#X floatatom 1066 993 5 0 0 0 - - -, f 5;
#X obj 1065 973 * 15.8;
#X obj 1356 619 *~;
#X obj 1433 622 *~;
#X obj 1541 620 *~;
#X obj 1647 621 *~;
#X obj 1492 813 dac~ 1 2 3 4;
#X obj 1307 263 readsf~ 4;
#X connect 0 0 1 0;
#X connect 0 0 307 0;
#X connect 3 0 4 0;
#X connect 3 0 291 0;
#X connect 6 0 7 0;
#X connect 6 0 101 0;
#X connect 9 0 3 0;
#X connect 9 0 5 0;
#X connect 10 0 6 0;
#X connect 10 0 8 0;
#X connect 11 0 12 0;
#X connect 11 0 304 0;
#X connect 14 0 15 0;
#X connect 14 0 305 0;
#X connect 17 0 18 0;
#X connect 17 0 306 0;
#X connect 21 0 22 0;
#X connect 21 0 309 0;
#X connect 24 0 25 0;
#X connect 24 0 310 0;
#X connect 27 0 28 0;
#X connect 27 0 311 0;
#X connect 30 0 31 0;
#X connect 30 0 312 0;
#X connect 33 0 34 0;
#X connect 33 0 313 0;
#X connect 36 0 37 0;
#X connect 36 0 314 0;
#X connect 37 0 269 0;
#X connect 40 0 41 0;
#X connect 40 0 293 0;
#X connect 43 0 44 0;
#X connect 43 0 294 0;
#X connect 46 0 47 0;
#X connect 46 0 295 0;
#X connect 47 0 315 0;
#X connect 49 0 50 0;
#X connect 49 0 296 0;
#X connect 50 0 316 0;
#X connect 52 0 53 0;
#X connect 52 0 297 0;
#X connect 53 0 317 0;
#X connect 55 0 56 0;
#X connect 55 0 298 0;
#X connect 56 0 318 0;
#X connect 58 0 59 0;
#X connect 58 0 292 0;
#X connect 60 0 61 0;
#X connect 60 0 308 0;
#X connect 63 0 64 0;
#X connect 63 0 103 0;
#X connect 66 0 67 0;
#X connect 66 0 104 0;
#X connect 69 0 70 0;
#X connect 69 0 105 0;
#X connect 72 0 73 0;
#X connect 72 0 106 0;
#X connect 75 0 76 0;
#X connect 75 0 107 0;
#X connect 78 0 79 0;
#X connect 78 0 108 0;
#X connect 81 0 82 0;
#X connect 81 0 102 0;
#X connect 83 0 39 0;
#X connect 83 0 58 0;
#X connect 84 0 62 0;
#X connect 84 0 81 0;
#X connect 85 0 40 0;
#X connect 85 0 42 0;
#X connect 86 0 63 0;
#X connect 86 0 65 0;
#X connect 87 0 43 0;
#X connect 87 0 45 0;
#X connect 88 0 66 0;
#X connect 88 0 68 0;
#X connect 89 0 46 0;
#X connect 89 0 48 0;
#X connect 90 0 69 0;
#X connect 90 0 71 0;
#X connect 91 0 72 0;
#X connect 91 0 74 0;
#X connect 92 0 75 0;
#X connect 92 0 77 0;
#X connect 93 0 78 0;
#X connect 93 0 80 0;
#X connect 94 0 95 0;
#X connect 94 0 109 0;
#X connect 97 0 94 0;
#X connect 97 0 96 0;
#X connect 98 0 49 0;
#X connect 98 0 51 0;
#X connect 99 0 52 0;
#X connect 99 0 54 0;
#X connect 100 0 55 0;
#X connect 100 0 57 0;
#X connect 109 0 359 0;
#X connect 113 0 111 0;
#X connect 113 1 112 0;
#X connect 119 0 290 0;
#X connect 121 0 120 0;
#X connect 121 1 122 0;
#X connect 125 0 123 0;
#X connect 125 1 124 0;
#X connect 127 0 126 0;
#X connect 127 1 128 0;
#X connect 131 0 129 0;
#X connect 131 1 130 0;
#X connect 133 0 132 0;
#X connect 133 1 134 0;
#X connect 137 0 135 0;
#X connect 137 1 136 0;
#X connect 139 0 138 0;
#X connect 139 1 140 0;
#X connect 143 0 141 0;
#X connect 143 1 142 0;
#X connect 145 0 144 0;
#X connect 145 1 146 0;
#X connect 149 0 147 0;
#X connect 149 1 148 0;
#X connect 151 0 150 0;
#X connect 151 1 152 0;
#X connect 155 0 153 0;
#X connect 155 1 154 0;
#X connect 156 0 114 0;
#X connect 156 1 115 0;
#X connect 159 0 157 0;
#X connect 159 1 158 0;
#X connect 160 0 116 0;
#X connect 160 1 117 0;
#X connect 161 0 118 0;
#X connect 161 1 119 0;
#X connect 162 0 206 0;
#X connect 163 0 205 0;
#X connect 164 0 282 0;
#X connect 165 0 281 0;
#X connect 166 0 200 0;
#X connect 167 0 199 0;
#X connect 168 0 198 0;
#X connect 169 0 223 0;
#X connect 170 0 224 0;
#X connect 171 0 225 0;
#X connect 172 0 219 0;
#X connect 173 0 212 0;
#X connect 174 0 211 0;
#X connect 175 0 213 0;
#X connect 176 0 285 0;
#X connect 177 0 284 0;
#X connect 178 0 283 0;
#X connect 179 0 214 0;
#X connect 180 0 275 0;
#X connect 181 0 274 0;
#X connect 182 0 273 0;
#X connect 183 0 11 0;
#X connect 183 0 13 0;
#X connect 184 0 14 0;
#X connect 184 0 16 0;
#X connect 185 0 17 0;
#X connect 185 0 19 0;
#X connect 186 0 36 0;
#X connect 186 0 38 0;
#X connect 187 0 33 0;
#X connect 187 0 35 0;
#X connect 188 0 30 0;
#X connect 188 0 32 0;
#X connect 189 0 27 0;
#X connect 189 0 29 0;
#X connect 190 0 24 0;
#X connect 190 0 26 0;
#X connect 191 0 21 0;
#X connect 191 0 23 0;
#X connect 192 0 20 0;
#X connect 192 0 60 0;
#X connect 193 0 0 0;
#X connect 193 0 2 0;
#X connect 198 0 195 0;
#X connect 199 0 196 0;
#X connect 200 0 197 0;
#X connect 205 0 203 0;
#X connect 206 0 204 0;
#X connect 211 0 209 0;
#X connect 212 0 210 0;
#X connect 213 0 208 0;
#X connect 214 0 207 0;
#X connect 219 0 215 0;
#X connect 223 0 218 0;
#X connect 224 0 217 0;
#X connect 225 0 216 0;
#X connect 226 0 227 0;
#X connect 226 0 299 0;
#X connect 230 0 231 0;
#X connect 230 0 301 0;
#X connect 233 0 234 0;
#X connect 233 0 302 0;
#X connect 236 0 237 0;
#X connect 236 0 300 0;
#X connect 238 0 248 0;
#X connect 239 0 247 0;
#X connect 240 0 246 0;
#X connect 241 0 287 0;
#X connect 242 0 271 0;
#X connect 246 0 243 0;
#X connect 247 0 244 0;
#X connect 248 0 245 0;
#X connect 249 0 226 0;
#X connect 249 0 228 0;
#X connect 250 0 229 0;
#X connect 250 0 236 0;
#X connect 251 0 230 0;
#X connect 251 0 232 0;
#X connect 252 0 233 0;
#X connect 252 0 235 0;
#X connect 253 0 254 0;
#X connect 253 0 303 0;
#X connect 256 0 286 0;
#X connect 257 0 272 0;
#X connect 258 0 253 0;
#X connect 258 0 255 0;
#X connect 261 0 260 0;
#X connect 262 0 260 0;
#X connect 263 0 260 0;
#X connect 264 0 260 0;
#X connect 265 0 260 0;
#X connect 266 0 260 0;
#X connect 267 0 260 0;
#X connect 268 0 260 0;
#X connect 269 0 268 0;
#X connect 270 0 267 0;
#X connect 271 0 265 0;
#X connect 271 0 280 0;
#X connect 272 0 264 0;
#X connect 272 0 279 0;
#X connect 273 0 263 0;
#X connect 273 0 278 0;
#X connect 274 0 262 0;
#X connect 274 0 277 0;
#X connect 275 0 261 0;
#X connect 275 0 276 0;
#X connect 281 0 201 0;
#X connect 282 0 202 0;
#X connect 283 0 180 0;
#X connect 284 0 181 0;
#X connect 285 0 182 0;
#X connect 286 0 257 0;
#X connect 287 0 242 0;
#X connect 289 0 367 0;
#X connect 290 0 289 0;
#X connect 291 0 162 0;
#X connect 292 0 163 0;
#X connect 293 0 164 0;
#X connect 294 0 165 0;
#X connect 296 0 166 0;
#X connect 297 0 167 0;
#X connect 298 0 168 0;
#X connect 299 0 238 0;
#X connect 300 0 239 0;
#X connect 301 0 240 0;
#X connect 302 0 241 0;
#X connect 303 0 256 0;
#X connect 304 0 176 0;
#X connect 305 0 177 0;
#X connect 306 0 178 0;
#X connect 307 0 169 0;
#X connect 308 0 170 0;
#X connect 309 0 171 0;
#X connect 310 0 172 0;
#X connect 311 0 173 0;
#X connect 312 0 174 0;
#X connect 313 0 175 0;
#X connect 314 0 179 0;
#X connect 315 0 343 0;
#X connect 315 0 367 0;
#X connect 316 0 344 0;
#X connect 316 0 367 0;
#X connect 317 0 345 0;
#X connect 317 0 367 0;
#X connect 318 0 346 0;
#X connect 318 0 367 0;
#X connect 320 0 323 0;
#X connect 320 0 343 0;
#X connect 321 0 320 1;
#X connect 321 0 340 0;
#X connect 321 0 342 0;
#X connect 321 0 349 0;
#X connect 321 0 350 0;
#X connect 322 0 320 0;
#X connect 323 0 339 0;
#X connect 323 0 344 0;
#X connect 323 0 345 0;
#X connect 323 0 346 0;
#X connect 324 0 325 0;
#X connect 325 0 326 0;
#X connect 326 0 327 0;
#X connect 327 0 362 0;
#X connect 328 0 329 0;
#X connect 329 0 330 0;
#X connect 330 0 331 0;
#X connect 331 0 363 0;
#X connect 332 0 333 0;
#X connect 333 0 334 0;
#X connect 334 0 335 0;
#X connect 335 0 364 0;
#X connect 336 0 337 0;
#X connect 337 0 338 0;
#X connect 338 0 351 0;
#X connect 339 0 341 0;
#X connect 340 0 339 1;
#X connect 342 0 341 1;
#X connect 343 0 352 0;
#X connect 344 0 353 0;
#X connect 345 0 354 0;
#X connect 346 0 355 0;
#X connect 348 0 321 0;
#X connect 349 0 346 1;
#X connect 349 0 345 1;
#X connect 349 0 344 1;
#X connect 349 0 343 1;
#X connect 350 0 323 1;
#X connect 351 0 365 0;
#X connect 352 0 324 0;
#X connect 353 0 328 0;
#X connect 354 0 332 0;
#X connect 355 0 336 0;
#X connect 357 0 356 0;
#X connect 358 0 356 0;
#X connect 359 0 361 0;
#X connect 360 0 348 0;
#X connect 361 0 360 0;
#X connect 362 0 366 0;
#X connect 363 0 366 1;
#X connect 364 0 366 2;
#X connect 365 0 366 3;
#X connect 367 0 260 0;
#X connect 367 0 260 1;
#X connect 367 0 362 0;
#X connect 367 0 363 0;
#X connect 367 0 364 0;
#X connect 367 0 365 0;
#X connect 367 1 260 1;
#X connect 367 1 362 1;
#X connect 367 1 363 1;
#X connect 367 1 364 1;
#X connect 367 1 365 1;
